<?xml version="1.0" encoding="UTF-8" standalone="no"?>
<!-- Creator: CorelDRAW X5 -->

<svg
   xml:space="preserve"
   width="300"
   height="300"
   style="clip-rule:evenodd;fill-rule:evenodd;image-rendering:optimizeQuality;shape-rendering:geometricPrecision;text-rendering:geometricPrecision"
   viewBox="0 0 7937.5 7937.5"
   version="1.1"
   id="svg2"
   sodipodi:docname="clock-am.svg"
   inkscape:version="1.3 (1:1.3+202307231459+0e150ed6c4)"
   xmlns:inkscape="http://www.inkscape.org/namespaces/inkscape"
   xmlns:sodipodi="http://sodipodi.sourceforge.net/DTD/sodipodi-0.dtd"
   xmlns="http://www.w3.org/2000/svg"
   xmlns:svg="http://www.w3.org/2000/svg"><sodipodi:namedview
   id="namedview2"
   pagecolor="#ffffff"
   bordercolor="#666666"
   borderopacity="1.0"
   inkscape:showpageshadow="2"
   inkscape:pageopacity="0.0"
   inkscape:pagecheckerboard="0"
   inkscape:deskcolor="#d1d1d1"
   inkscape:document-units="mm"
   inkscape:zoom="2.3047514"
   inkscape:cx="145.78579"
   inkscape:cy="171.38508"
   inkscape:window-width="1920"
   inkscape:window-height="1016"
   inkscape:window-x="0"
   inkscape:window-y="0"
   inkscape:window-maximized="1"
   inkscape:current-layer="Layer_x0020_1_0"
   showgrid="true"><inkscape:grid
     id="grid3"
     units="px"
     originx="0"
     originy="0"
     spacingx="661.45833"
     spacingy="661.45833"
     empcolor="#0099e5"
     empopacity="0.30196078"
     color="#0099e5"
     opacity="0.14901961"
     empspacing="5"
     dotted="false"
     gridanglex="30"
     gridanglez="30"
     visible="true" /></sodipodi:namedview>&#10; <defs
   id="defs1">&#10;  <style
   type="text/css"
   id="style1">&#10;   <![CDATA[
    .fil1 {fill:#2C3A4E}
    .fil0 {fill:white}
   ]]>&#10;  </style>&#10; </defs>&#10; <g
   id="Layer_x0020_1"
   inkscape:label="Layer 1"
   inkscape:groupmode="layer">&#10;  <metadata
   id="CorelCorpID_0Corel-Layer" />&#10; </g>&#10; <g
   id="Layer_x0020_1_0"
   inkscape:label="Layer 1_0"
   inkscape:groupmode="layer">&#10;  <metadata
   id="CorelCorpID_1Corel-Layer" />&#10;  <path
   class="fil0"
   d="m 3968.7505,570.72952 c 1876.12,0 3398.0201,1521.01008 3398.0201,3398.02008 0,1876.12 -1521.0101,3398.0201 -3398.0201,3398.0201 -1876.12,0 -3398.02006,-1521.0101 -3398.02006,-3398.0201 0,-1876.12 1521.01006,-3398.02008 3398.02006,-3398.02008 z"
   id="path1"
   sodipodi:nodetypes="sssss"
   style="stroke-width:0.89;fill:none" />&#10;  <path
   class="fil1"
   d="m 3968.7505,1524.6779 c 1349.981,0 2444.0718,1094.0908 2444.0718,2444.0717 0,1349.981 -1094.0908,2444.0718 -2444.0718,2444.0718 -1349.9809,0 -2444.0717,-1094.0908 -2444.0717,-2444.0718 0,-1349.9809 1094.0908,-2444.0717 2444.0717,-2444.0717 z m -1184.4392,4327.983 211.5903,-366.0571 143.9746,82.7708 -211.5902,366.64 c 284.4519,150.9694 606.209,241.9007 947.2016,255.8902 v -843.4467 h 188.2745 v 843.4467 c 340.9926,-13.9895 662.1668,-105.5037 946.6188,-255.8902 l -211.5903,-366.64 143.9747,-82.7708 211.5902,366.0571 c 282.7033,-178.3655 522.8553,-418.5175 700.6378,-701.8036 l -365.4741,-211.0074 82.7708,-143.9747 365.4742,211.0074 c 150.3865,-283.8691 240.7349,-604.4603 254.7243,-944.2872 h -842.8637 v -188.2745 h 842.8637 c -13.9894,-340.9926 -105.5036,-662.7497 -256.473,-947.2017 l -363.7255,210.4245 -82.7708,-143.9746 363.7255,-209.8416 c -177.7826,-282.1204 -417.9346,-521.6895 -700.6379,-699.472 l -209.8415,363.1425 -143.9747,-82.7708 209.8415,-363.1426 C 4724.7632,1851.0982 4404.1718,1760.7497 4064.345,1746.1774 v 843.4467 h -188.2745 v -843.4467 c -340.4098,13.9894 -661.001,104.9208 -945.453,255.3072 l 209.8417,363.1426 -143.9747,82.7708 -209.8417,-363.1425 c -282.7032,177.7825 -522.2724,417.3516 -700.6378,699.472 l 363.7256,209.8416 -82.7709,143.9746 -363.7255,-210.4245 c -150.9694,284.452 -242.4836,606.2091 -256.4731,947.2017 h 844.0296 v 188.2745 h -844.0296 c 13.9895,339.8269 104.9209,660.4181 254.7244,944.2872 l 365.4742,-211.0074 82.7709,143.9747 -365.4742,211.0074 c 177.7825,283.2861 417.9345,523.4381 700.6378,701.2207 z"
   id="path2"
   sodipodi:nodetypes="ssssscccccccccccccccccccccccccccccccccccccccccccccccccc"
   style="fill:#f2f2f2;fill-opacity:1;stroke-width:0.582893" />&#10; <path
   style="font-size:1397.99px;line-height:1.2;font-family:'TradeGothic LT Bold';-inkscape-font-specification:'TradeGothic LT Bold, Normal';fill:#f2f2f2;stroke-width:209.699;fill-opacity:1"
   d="m 3369.7114,4090.3751 h 191.5247 l -93.6654,-408.2131 h -2.7959 z m -275.404,383.0492 250.2402,-1009.3488 h 247.4443 l 243.2502,1009.3488 h -184.5347 l -48.9296,-212.4945 h -267.0161 l -54.5216,212.4945 z m 856.9675,0 V 3464.0755 h 269.8121 l 174.7488,662.6473 h 2.7959 l 174.7488,-662.6473 h 269.8121 V 4473.4243 H 4678.2297 V 3679.366 h -2.7959 l -205.5046,794.0583 H 4324.5383 L 4119.0337,3679.366 h -2.7959 v 794.0583 z"
   id="text2"
   aria-label="AM" /><path
   style="clip-rule:evenodd;fill:none;fill-opacity:1;fill-rule:evenodd;stroke:#0d534d;stroke-width:529.16666667;stroke-linecap:round;stroke-linejoin:round;stroke-dasharray:none;image-rendering:optimizeQuality;shape-rendering:geometricPrecision;text-rendering:geometricPrecision;stroke-opacity:1"
   id="path3-8"
   sodipodi:type="arc"
   sodipodi:cx="3968.75"
   sodipodi:cy="3968.7493"
   sodipodi:rx="3398.0208"
   sodipodi:ry="3398.0208"
   sodipodi:start="0.52359878"
   sodipodi:end="4.712389"
   sodipodi:arc-type="arc"
   d="M 6911.5223,5667.7597 A 3398.0208,3398.0208 0 0 1 2806.5584,7161.8443 3398.0208,3398.0208 0 0 1 622.35283,3378.6891 3398.0208,3398.0208 0 0 1 3968.75,570.72852"
   sodipodi:open="true" /><path
   style="fill:none;fill-opacity:1;fill-rule:evenodd;stroke:#f1c500;stroke-width:529.16666667;stroke-linecap:butt;stroke-linejoin:round;stroke-dasharray:none;stroke-opacity:1"
   id="path3"
   sodipodi:type="arc"
   sodipodi:cx="3968.75"
   sodipodi:cy="3968.7493"
   sodipodi:rx="3398.0208"
   sodipodi:ry="3398.0208"
   sodipodi:start="4.712389"
   sodipodi:end="0.52359878"
   sodipodi:arc-type="arc"
   d="m 3968.75,570.72852 a 3398.0208,3398.0208 0 0 1 2942.7723,1699.01038 3398.0208,3398.0208 0 0 1 0,3398.0208"
   sodipodi:open="true" /><circle
   style="clip-rule:evenodd;fill:none;fill-opacity:1;fill-rule:evenodd;stroke:#1e3765;stroke-width:800;stroke-linejoin:round;stroke-dasharray:400, 400;stroke-dashoffset:0;stroke-opacity:1;image-rendering:optimizeQuality;shape-rendering:geometricPrecision;text-rendering:geometricPrecision"
   id="path4"
   cx="3968.7505"
   cy="4027.9524"
   r="3457.2229" /></g>&#10;</svg>
