<?xml version="1.0" encoding="UTF-8" standalone="no"?>
<!-- Creator: CorelDRAW X5 -->

<svg
   xml:space="preserve"
   width="291.54669"
   height="291.39478"
   style="clip-rule:evenodd;fill-rule:evenodd;image-rendering:optimizeQuality;shape-rendering:geometricPrecision;text-rendering:geometricPrecision"
   viewBox="0 0 7713.8396 7709.8201"
   version="1.1"
   id="svg2"
   sodipodi:docname="clock-pm.svg"
   inkscape:version="1.3 (1:1.3+202307231459+0e150ed6c4)"
   xmlns:inkscape="http://www.inkscape.org/namespaces/inkscape"
   xmlns:sodipodi="http://sodipodi.sourceforge.net/DTD/sodipodi-0.dtd"
   xmlns="http://www.w3.org/2000/svg"
   xmlns:svg="http://www.w3.org/2000/svg"><sodipodi:namedview
   id="namedview2"
   pagecolor="#ffffff"
   bordercolor="#666666"
   borderopacity="1.0"
   inkscape:showpageshadow="2"
   inkscape:pageopacity="0.0"
   inkscape:pagecheckerboard="0"
   inkscape:deskcolor="#d1d1d1"
   inkscape:document-units="mm"
   inkscape:zoom="2.217569"
   inkscape:cx="61.779362"
   inkscape:cy="179.02487"
   inkscape:window-width="1920"
   inkscape:window-height="1016"
   inkscape:window-x="0"
   inkscape:window-y="0"
   inkscape:window-maximized="1"
   inkscape:current-layer="Layer_x0020_1_0"
   showgrid="true"><inkscape:grid
     id="grid1"
     units="px"
     originx="-3.5714207"
     originy="-4.2171805"
     spacingx="26.458333"
     spacingy="26.458333"
     empcolor="#0099e5"
     empopacity="0.30196078"
     color="#0099e5"
     opacity="0.14901961"
     empspacing="5"
     dotted="false"
     gridanglex="30"
     gridanglez="30"
     visible="true" /></sodipodi:namedview>&#10; <defs
   id="defs1">&#10;  <style
   type="text/css"
   id="style1">&#10;   <![CDATA[
    .fil1 {fill:#2C3A4E}
    .fil0 {fill:white}
   ]]>&#10;  </style>&#10; </defs>&#10; <g
   id="Layer_x0020_1"
   inkscape:label="Layer 1"
   inkscape:groupmode="layer"
   transform="translate(-94.493839,-111.57957)">&#10;  <metadata
   id="CorelCorpID_0Corel-Layer" />&#10; </g>&#10; <g
   id="Layer_x0020_1_0"
   inkscape:label="Layer 1_0"
   inkscape:groupmode="layer"
   transform="translate(-94.493839,-111.57957)"><path
   d="m 3361.2667,3908.0717 h 104.4222 q 143.9332,0 143.9332,-143.9332 0,-143.9332 -143.9332,-143.9332 h -104.4222 z m -194.7331,570.0885 V 3459.3387 h 280.8108 q 180.6221,0 268.1109,80.4333 88.9,79.0222 88.9,224.3665 0,145.3443 -88.9,225.7776 -87.4888,79.0222 -268.1109,79.0222 h -86.0777 v 409.2219 z m 784.5767,0 V 3459.3387 h 272.3443 l 176.3887,668.8662 h 2.8222 l 176.3888,-668.8662 h 272.3442 v 1018.8215 h -166.511 v -801.5105 h -2.8222 l -207.4332,801.5105 h -146.7554 l -207.4332,-801.5105 h -2.8222 v 801.5105 z"
   id="text1"
   style="font-size:1411.11px;line-height:1.2;font-family:'TradeGothic LT Bold';-inkscape-font-specification:'TradeGothic LT Bold, Normal';fill:#f2f2f2;fill-opacity:1;stroke-width:26.4583"
   aria-label="PM" />&#10;  <metadata
   id="CorelCorpID_1Corel-Layer" />&#10;  <path
   class="fil0"
   d="m 3968.7505,570.72952 c 1876.12,0 3398.0201,1521.01008 3398.0201,3398.02008 0,1876.12 -1521.0101,3398.0201 -3398.0201,3398.0201 -1876.12,0 -3398.02006,-1521.0101 -3398.02006,-3398.0201 0,-1876.12 1521.01006,-3398.02008 3398.02006,-3398.02008 z"
   id="path1"
   sodipodi:nodetypes="sssss"
   style="fill:none;stroke-width:0.89" />&#10;  <path
   class="fil1"
   d="m 3968.7505,1524.6779 c 1349.981,0 2444.0718,1094.0908 2444.0718,2444.0717 0,1349.981 -1094.0908,2444.0718 -2444.0718,2444.0718 -1349.9809,0 -2444.0717,-1094.0908 -2444.0717,-2444.0718 0,-1349.9809 1094.0908,-2444.0717 2444.0717,-2444.0717 z m -1184.4392,4327.983 211.5903,-366.0571 143.9746,82.7708 -211.5902,366.64 c 284.4519,150.9694 606.209,241.9007 947.2016,255.8902 v -843.4467 h 188.2745 v 843.4467 c 340.9926,-13.9895 662.1668,-105.5037 946.6188,-255.8902 l -211.5903,-366.64 143.9747,-82.7708 211.5902,366.0571 c 282.7033,-178.3655 522.8553,-418.5175 700.6378,-701.8036 l -365.4741,-211.0074 82.7708,-143.9747 365.4742,211.0074 c 150.3865,-283.8691 240.7349,-604.4603 254.7243,-944.2872 h -842.8637 v -188.2745 h 842.8637 c -13.9894,-340.9926 -105.5036,-662.7497 -256.473,-947.2017 l -363.7255,210.4245 -82.7708,-143.9746 363.7255,-209.8416 c -177.7826,-282.1204 -417.9346,-521.6895 -700.6379,-699.472 l -209.8415,363.1425 -143.9747,-82.7708 209.8415,-363.1426 C 4724.7632,1851.0982 4404.1718,1760.7497 4064.345,1746.1774 v 843.4467 h -188.2745 v -843.4467 c -340.4098,13.9894 -661.001,104.9208 -945.453,255.3072 l 209.8417,363.1426 -143.9747,82.7708 -209.8417,-363.1425 c -282.7032,177.7825 -522.2724,417.3516 -700.6378,699.472 l 363.7256,209.8416 -82.7709,143.9746 -363.7255,-210.4245 c -150.9694,284.452 -242.4836,606.2091 -256.4731,947.2017 h 844.0296 v 188.2745 h -844.0296 c 13.9895,339.8269 104.9209,660.4181 254.7244,944.2872 l 365.4742,-211.0074 82.7709,143.9747 -365.4742,211.0074 c 177.7825,283.2861 417.9345,523.4381 700.6378,701.2207 z"
   id="path2"
   sodipodi:nodetypes="ssssscccccccccccccccccccccccccccccccccccccccccccccccccc"
   style="fill:#f2f2f2;fill-opacity:1;stroke-width:0.582893" />&#10; <path
   style="clip-rule:evenodd;fill:none;fill-opacity:1;fill-rule:evenodd;stroke:#f1c500;stroke-width:529.167;stroke-linecap:round;stroke-linejoin:round;stroke-dasharray:none;stroke-opacity:1;image-rendering:optimizeQuality;shape-rendering:geometricPrecision;text-rendering:geometricPrecision"
   id="path3-8"
   sodipodi:type="arc"
   sodipodi:cx="3968.75"
   sodipodi:cy="3968.7493"
   sodipodi:rx="3398.0208"
   sodipodi:ry="3398.0208"
   sodipodi:start="2.3576029"
   sodipodi:end="4.712389"
   sodipodi:arc-type="arc"
   d="M 1562.6048,6368.1263 A 3398.0208,3398.0208 0 0 1 830.30469,2666.1726 3398.0208,3398.0208 0 0 1 3968.75,570.72852"
   sodipodi:open="true" /><path
   style="fill:none;fill-opacity:1;fill-rule:evenodd;stroke:#6fc7ea;stroke-width:529.167;stroke-linecap:butt;stroke-linejoin:round;stroke-dasharray:none;stroke-opacity:1"
   id="path3"
   sodipodi:type="arc"
   sodipodi:cx="3968.75"
   sodipodi:cy="3968.7493"
   sodipodi:rx="3398.0208"
   sodipodi:ry="3398.0208"
   sodipodi:start="4.712389"
   sodipodi:end="2.3561945"
   sodipodi:arc-type="arc"
   d="M 3968.75,570.72852 A 3398.0208,3398.0208 0 0 1 7250.986,3089.2768 3398.0208,3398.0208 0 0 1 5667.7603,6911.5216 3398.0208,3398.0208 0 0 1 1565.9865,6371.5128"
   sodipodi:open="true" /><circle
   style="fill:none;fill-opacity:1;fill-rule:evenodd;stroke:#1e3765;stroke-width:800;stroke-linejoin:round;stroke-dasharray:400, 400;stroke-dashoffset:0;stroke-opacity:1"
   id="path4"
   cx="3951.1101"
   cy="3968.8027"
   r="3457.2229" /></g>&#10;</svg>
