<?xml version="1.0" encoding="UTF-8" standalone="no"?>
<!-- Created with Inkscape (http://www.inkscape.org/) -->

<svg
   width="320"
   height="133"
   viewBox="0 0 84.666669 35.189583"
   version="1.1"
   id="svg1"
   inkscape:version="1.3 (1:1.3+202307231459+0e150ed6c4)"
   sodipodi:docname="mj-logo.svg"
   xmlns:inkscape="http://www.inkscape.org/namespaces/inkscape"
   xmlns:sodipodi="http://sodipodi.sourceforge.net/DTD/sodipodi-0.dtd"
   xmlns="http://www.w3.org/2000/svg"
   xmlns:svg="http://www.w3.org/2000/svg">
  <sodipodi:namedview
     id="namedview1"
     pagecolor="#ffffff"
     bordercolor="#666666"
     borderopacity="1.0"
     inkscape:showpageshadow="2"
     inkscape:pageopacity="0.0"
     inkscape:pagecheckerboard="0"
     inkscape:deskcolor="#d1d1d1"
     inkscape:document-units="mm"
     inkscape:zoom="4.4364478"
     inkscape:cx="133.8909"
     inkscape:cy="29.866237"
     inkscape:window-width="2560"
     inkscape:window-height="1403"
     inkscape:window-x="0"
     inkscape:window-y="0"
     inkscape:window-maximized="1"
     inkscape:current-layer="layer1" />
  <defs
     id="defs1">
    <clipPath
       clipPathUnits="userSpaceOnUse"
       id="clipPath7">
      <path
         d="M 0,612 H 792 V 0 H 0 Z"
         transform="translate(-156.04431,-480.62131)"
         id="path7" />
    </clipPath>
    <clipPath
       clipPathUnits="userSpaceOnUse"
       id="clipPath9">
      <path
         d="M 0,612 H 792 V 0 H 0 Z"
         transform="translate(-163.4013,-460.09651)"
         id="path9" />
    </clipPath>
    <clipPath
       clipPathUnits="userSpaceOnUse"
       id="clipPath11">
      <path
         d="M 0,612 H 792 V 0 H 0 Z"
         id="path11" />
    </clipPath>
    <clipPath
       clipPathUnits="userSpaceOnUse"
       id="clipPath13">
      <path
         d="M 0,612 H 792 V 0 H 0 Z"
         transform="translate(-228.9145,-466.10541)"
         id="path13" />
    </clipPath>
    <clipPath
       clipPathUnits="userSpaceOnUse"
       id="clipPath15">
      <path
         d="M 0,612 H 792 V 0 H 0 Z"
         id="path15" />
    </clipPath>
    <clipPath
       clipPathUnits="userSpaceOnUse"
       id="clipPath17">
      <path
         d="M 0,612 H 792 V 0 H 0 Z"
         transform="translate(-279.7417,-466.10541)"
         id="path17" />
    </clipPath>
    <clipPath
       clipPathUnits="userSpaceOnUse"
       id="clipPath19">
      <path
         d="M 0,612 H 792 V 0 H 0 Z"
         id="path19" />
    </clipPath>
    <clipPath
       clipPathUnits="userSpaceOnUse"
       id="clipPath21">
      <path
         d="M 0,612 H 792 V 0 H 0 Z"
         transform="translate(-362.11081,-460.09651)"
         id="path21" />
    </clipPath>
    <clipPath
       clipPathUnits="userSpaceOnUse"
       id="clipPath23">
      <path
         d="M 0,612 H 792 V 0 H 0 Z"
         transform="translate(-405.00001,-465.71531)"
         id="path23" />
    </clipPath>
    <clipPath
       clipPathUnits="userSpaceOnUse"
       id="clipPath25">
      <path
         d="M 0,612 H 792 V 0 H 0 Z"
         id="path25" />
    </clipPath>
    <clipPath
       clipPathUnits="userSpaceOnUse"
       id="clipPath27">
      <path
         d="M 0,612 H 792 V 0 H 0 Z"
         transform="translate(-280.0561,-422.65891)"
         id="path27" />
    </clipPath>
    <clipPath
       clipPathUnits="userSpaceOnUse"
       id="clipPath29">
      <path
         d="M 0,612 H 792 V 0 H 0 Z"
         transform="translate(-247.82421,-417.43011)"
         id="path29" />
    </clipPath>
    <clipPath
       clipPathUnits="userSpaceOnUse"
       id="clipPath31">
      <path
         d="M 0,612 H 792 V 0 H 0 Z"
         id="path31" />
    </clipPath>
    <clipPath
       clipPathUnits="userSpaceOnUse"
       id="clipPath33">
      <path
         d="M 0,612 H 792 V 0 H 0 Z"
         transform="translate(-193.2822,-440.56931)"
         id="path33" />
    </clipPath>
    <clipPath
       clipPathUnits="userSpaceOnUse"
       id="clipPath35">
      <path
         d="M 0,612 H 792 V 0 H 0 Z"
         transform="translate(-148.0401,-414.48041)"
         id="path35" />
    </clipPath>
    <clipPath
       clipPathUnits="userSpaceOnUse"
       id="clipPath37">
      <path
         d="M 0,612 H 792 V 0 H 0 Z"
         transform="translate(-116.73051,-446.63301)"
         id="path37" />
    </clipPath>
    <clipPath
       clipPathUnits="userSpaceOnUse"
       id="clipPath39">
      <path
         d="M 0,612 H 792 V 0 H 0 Z"
         transform="translate(-66.227102,-446.63301)"
         id="path39" />
    </clipPath>
  </defs>
  <g
     inkscape:label="Layer 1"
     inkscape:groupmode="layer"
     id="layer1">
    <path
       id="path5"
       d="m 17.32921,10.867351 2.202764,5.723384 2.19793,-5.723384 h 1.715135 v 7.466281 h -1.321656 v -2.461574 l 0.131563,-3.292503 -2.257075,5.754077 h -0.949902 l -2.248629,-5.749249 0.131562,3.287675 v 2.461574 h -1.322863 v -7.466281 z"
       style="fill:#ffffff;fill-opacity:1;fill-rule:nonzero;stroke:none;stroke-width:0.172428" />
    <path
       id="path6"
       d="m 0,0 c 0,-4.243 -0.749,-7.966 -2.254,-11.169 -1.498,-3.203 -3.647,-5.66 -6.433,-7.378 -2.786,-1.718 -5.999,-2.573 -9.625,-2.573 -3.591,0 -6.79,0.855 -9.597,2.573 -2.807,1.718 -4.977,4.161 -6.51,7.33 -1.533,3.175 -2.31,6.83 -2.324,10.977 v 2.437 c 0,4.223 0.763,7.953 2.296,11.183 1.533,3.23 3.689,5.708 6.482,7.419 2.786,1.711 5.985,2.573 9.597,2.573 3.612,0 6.811,-0.849 9.597,-2.546 2.786,-1.697 4.942,-4.134 6.461,-7.316 C -0.791,10.327 -0.021,6.625 0,2.402 Z m -7.7,2.258 c 0,4.798 -0.931,8.48 -2.786,11.033 -1.855,2.559 -4.487,3.839 -7.896,3.839 -3.325,0 -5.929,-1.273 -7.805,-3.819 -1.876,-2.546 -2.835,-6.152 -2.877,-10.813 V 0 c 0,-4.756 0.945,-8.439 2.842,-11.032 1.897,-2.601 4.529,-3.895 7.896,-3.895 3.409,0 6.027,1.267 7.861,3.806 1.834,2.539 2.751,6.248 2.751,11.121 v 2.258 z"
       style="fill:#ffffff;fill-opacity:1;fill-rule:nonzero;stroke:none"
       transform="matrix(0.17242748,0,0,-0.17242748,31.094992,14.794627)"
       clip-path="url(#clipPath7)" />
    <path
       id="path8"
       d="m 0,0 v 43.301 h 15.183 c 5.012,0 8.82,-0.978 11.438,-2.943 2.618,-1.964 3.927,-4.886 3.927,-8.773 0,-1.985 -0.546,-3.765 -1.645,-5.352 -1.092,-1.588 -2.695,-2.813 -4.809,-3.689 2.394,-0.637 4.242,-1.828 5.551,-3.586 1.309,-1.752 1.96,-3.86 1.96,-6.324 0,-4.065 -1.337,-7.186 -3.997,-9.369 C 24.941,1.081 21.126,-0.007 16.156,-0.007 H 0 Z m 7.693,25.076 h 7.546 c 2.394,0 4.263,0.527 5.614,1.588 1.351,1.061 2.023,2.559 2.023,4.503 0,2.142 -0.623,3.689 -1.869,4.64 -1.246,0.952 -3.192,1.431 -5.824,1.431 H 7.7 V 25.076 Z m 0,-5.537 V 6.009 h 8.547 c 2.415,0 4.298,0.582 5.656,1.752 1.358,1.17 2.037,2.799 2.037,4.88 0,4.503 -2.352,6.802 -7.056,6.898 z"
       style="fill:#ffffff;fill-opacity:1;fill-rule:nonzero;stroke:none"
       transform="matrix(0.17242748,0,0,-0.17242748,32.363543,18.333666)"
       clip-path="url(#clipPath9)" />
    <path
       id="path10"
       d="m 203.161,460.096 h 7.665 v 43.301 h -7.665 z"
       style="fill:#ffffff;fill-opacity:1;fill-rule:nonzero;stroke:none"
       transform="matrix(0.17242748,0,0,-0.17242748,4.1886668,97.666953)"
       clip-path="url(#clipPath11)" />
    <path
       id="path12"
       d="M 0,0 H 20.111 V -6.009 H -7.693 V 37.292 H 0 Z"
       style="fill:#ffffff;fill-opacity:1;fill-rule:nonzero;stroke:none"
       transform="matrix(0.17242748,0,0,-0.17242748,43.659818,17.297567)"
       clip-path="url(#clipPath13)" />
    <path
       id="path14"
       d="m 255.375,460.096 h 7.665 v 43.301 h -7.665 z"
       style="fill:#ffffff;fill-opacity:1;fill-rule:nonzero;stroke:none"
       transform="matrix(0.17242748,0,0,-0.17242748,4.1886668,97.666953)"
       clip-path="url(#clipPath15)" />
    <path
       id="path16"
       d="M 0,0 H 23.667 V -6.009 H -9.31 v 4.88 L 13.594,31.229 H -9.163 v 6.07 h 32.095 v -4.756 z"
       style="fill:#ffffff;fill-opacity:1;fill-rule:nonzero;stroke:none"
       transform="matrix(0.17242748,0,0,-0.17242748,52.423826,17.297567)"
       clip-path="url(#clipPath17)" />
    <path
       id="path18"
       d="m 310.003,460.096 h 7.665 v 43.301 h -7.665 z"
       style="fill:#ffffff;fill-opacity:1;fill-rule:nonzero;stroke:none"
       transform="matrix(0.17242748,0,0,-0.17242748,4.1886668,97.666953)"
       clip-path="url(#clipPath19)" />
    <path
       id="path20"
       d="M 0,0 H -7.7 L -27.44,30.722 V 0 h -7.693 v 43.301 h 7.693 L -7.637,12.463 V 43.301 H 0 Z"
       style="fill:#ffffff;fill-opacity:1;fill-rule:nonzero;stroke:none"
       transform="matrix(0.17242748,0,0,-0.17242748,66.626518,18.333666)"
       clip-path="url(#clipPath21)" />
    <path
       id="path22"
       d="m 0,0 c -1.603,-2.039 -3.822,-3.586 -6.664,-4.64 -2.842,-1.054 -6.062,-1.574 -9.674,-1.574 -3.71,0 -7,0.821 -9.856,2.47 -2.863,1.643 -5.068,3.997 -6.615,7.063 -1.554,3.066 -2.359,6.639 -2.422,10.725 v 3.394 c 0,6.543 1.603,11.655 4.809,15.331 3.206,3.675 7.679,5.516 13.412,5.516 4.928,0 8.841,-1.198 11.746,-3.586 2.898,-2.389 4.641,-5.825 5.229,-10.307 h -7.546 c -0.854,5.215 -3.948,7.822 -9.275,7.822 -3.451,0 -6.069,-1.211 -7.861,-3.641 -1.792,-2.429 -2.723,-5.988 -2.786,-10.683 v -3.326 c 0,-4.675 1.008,-8.302 3.024,-10.889 2.016,-2.587 4.823,-3.88 8.414,-3.88 3.934,0 6.734,0.869 8.393,2.614 v 8.48 H -16.8 v 5.707 H -0.007 V 0 Z"
       style="fill:#ffffff;fill-opacity:1;fill-rule:nonzero;stroke:none"
       transform="matrix(0.17242748,0,0,-0.17242748,74.021796,17.364832)"
       clip-path="url(#clipPath23)" />
    <path
       id="path24"
       d="m 292.418,403.325 h 112.575 v 5.828 H 292.418 Z"
       style="fill:#ffffff;fill-opacity:1;fill-rule:nonzero;stroke:none"
       transform="matrix(0.17242748,0,0,-0.17242748,4.1886668,97.666953)"
       clip-path="url(#clipPath25)" />
    <path
       id="path26"
       d="M 0,0 H -18.16 V -13.325 H 3.067 v -6.009 H -25.839 V 23.974 H 2.858 v -6.07 H -18.153 V 5.947 H 0.007 V 0 Z"
       style="fill:#ffffff;fill-opacity:1;fill-rule:nonzero;stroke:none"
       transform="matrix(0.17242748,0,0,-0.17242748,52.478036,24.788939)"
       clip-path="url(#clipPath27)" />
    <path
       id="path28"
       d="m 0,0 c -0.447,-4.62 -2.187,-8.226 -5.219,-10.813 -3.04,-2.587 -7.079,-3.881 -12.116,-3.881 -3.522,0 -6.624,0.821 -9.307,2.45 -2.683,1.636 -4.751,3.963 -6.212,6.974 -1.46,3.012 -2.215,6.516 -2.278,10.499 v 4.044 c 0,4.086 0.741,7.686 2.215,10.793 1.475,3.114 3.599,5.51 6.359,7.2 2.767,1.684 5.953,2.525 9.579,2.525 4.877,0 8.804,-1.293 11.781,-3.88 2.976,-2.587 4.709,-6.248 5.191,-10.991 h -7.651 c -0.363,3.114 -1.293,5.358 -2.781,6.734 -1.488,1.376 -3.668,2.067 -6.547,2.067 -3.34,0 -5.904,-1.198 -7.7,-3.586 -1.789,-2.389 -2.711,-5.9 -2.746,-10.526 v -3.84 c 0,-4.681 0.853,-8.253 2.565,-10.717 1.711,-2.464 4.213,-3.689 7.518,-3.689 3.018,0 5.282,0.664 6.798,1.992 1.517,1.327 2.481,3.538 2.886,6.631 H 0 Z"
       style="fill:#ffffff;fill-opacity:1;fill-rule:nonzero;stroke:none"
       transform="matrix(0.17242748,0,0,-0.17242748,46.920369,25.690525)"
       clip-path="url(#clipPath29)" />
    <path
       id="path30"
       d="m 197.3,403.332 h 7.651 v 43.301 H 197.3 Z"
       style="fill:#ffffff;fill-opacity:1;fill-rule:nonzero;stroke:none"
       transform="matrix(0.17242748,0,0,-0.17242748,4.1886668,97.666953)"
       clip-path="url(#clipPath31)" />
    <path
       id="path32"
       d="m 0,0 h -13.786 v -37.238 h -7.616 V 0 H -35.069 V 6.071 H 0 Z"
       style="fill:#ffffff;fill-opacity:1;fill-rule:nonzero;stroke:none"
       transform="matrix(0.17242748,0,0,-0.17242748,37.515832,21.700694)"
       clip-path="url(#clipPath33)" />
    <path
       id="path34"
       d="m 0,0 c 0,1.903 -0.685,3.367 -2.047,4.401 -1.37,1.033 -3.829,2.073 -7.393,3.12 -3.563,1.054 -6.4,2.218 -8.503,3.511 -4.032,2.478 -6.044,5.708 -6.044,9.698 0,3.491 1.453,6.365 4.36,8.623 2.907,2.259 6.673,3.388 11.312,3.388 3.075,0 5.821,-0.554 8.231,-1.663 2.411,-1.109 4.304,-2.69 5.681,-4.743 1.376,-2.053 2.068,-4.325 2.068,-6.823 H 0.014 c 0,2.258 -0.727,4.031 -2.173,5.311 -1.446,1.28 -3.515,1.916 -6.212,1.916 -2.508,0 -4.457,-0.527 -5.848,-1.574 -1.383,-1.054 -2.082,-2.519 -2.082,-4.401 0,-1.587 0.748,-2.908 2.25,-3.969 1.495,-1.061 3.968,-2.094 7.406,-3.094 C -3.207,12.702 -0.44,11.559 1.642,10.28 3.724,9 5.254,7.535 6.226,5.879 7.197,4.223 7.686,2.286 7.686,0.062 c 0,-3.607 -1.411,-6.482 -4.234,-8.61 -2.823,-2.135 -6.652,-3.196 -11.494,-3.196 -3.2,0 -6.142,0.582 -8.818,1.738 -2.683,1.164 -4.765,2.758 -6.254,4.805 -1.488,2.039 -2.229,4.421 -2.229,7.138 h 7.686 c 0,-2.457 0.832,-4.36 2.488,-5.708 1.663,-1.348 4.038,-2.026 7.134,-2.026 2.669,0 4.681,0.527 6.03,1.595 C -0.678,-3.148 0,-1.745 0,0"
       style="fill:#ffffff;fill-opacity:1;fill-rule:nonzero;stroke:none"
       transform="matrix(0.17242748,0,0,-0.17242748,29.71485,26.199135)"
       clip-path="url(#clipPath35)" />
    <path
       id="path36"
       d="m 0,0 v -28.936 c 0,-4.599 -1.502,-8.247 -4.507,-10.93 -3.004,-2.689 -7.008,-4.031 -12.011,-4.031 -5.058,0 -9.076,1.321 -12.053,3.97 -2.976,2.648 -4.464,6.317 -4.464,11.018 V 0 h 7.651 v -28.97 c 0,-2.895 0.747,-5.106 2.249,-6.632 1.496,-1.526 3.704,-2.293 6.617,-2.293 5.911,0 8.867,3.053 8.867,9.158 V 0 Z"
       style="fill:#ffffff;fill-opacity:1;fill-rule:nonzero;stroke:none"
       transform="matrix(0.17242748,0,0,-0.17242748,24.316214,20.655144)"
       clip-path="url(#clipPath37)" />
    <path
       id="path38"
       d="m 0,0 h 7.651 v -30.366 c 0,-4.148 -1.321,-7.44 -3.962,-9.876 -2.641,-2.436 -6.128,-3.662 -10.46,-3.662 -4.618,0 -8.182,1.143 -10.69,3.422 -2.508,2.279 -3.766,5.455 -3.766,9.52 h 7.651 c 0,-2.299 0.58,-4.031 1.747,-5.187 1.167,-1.157 2.85,-1.739 5.058,-1.739 2.069,0 3.711,0.671 4.933,2.005 1.223,1.342 1.838,3.19 1.838,5.544 z"
       style="fill:#ffffff;fill-opacity:1;fill-rule:nonzero;stroke:none"
       transform="matrix(0.17242748,0,0,-0.17242748,15.608039,20.655144)"
       clip-path="url(#clipPath39)" />
    <path
       style="fill:#f9f9f9;stroke:#f9f9f9;stroke-width:0.238663px;stroke-linecap:butt;stroke-linejoin:miter;stroke-opacity:1"
       d="M 3.937184,30.926317 V 8.788381"
       id="path1" />
  </g>
</svg>
