<?xml version="1.0" encoding="UTF-8" standalone="no"?>
<!-- Created with Inkscape (http://www.inkscape.org/) -->

<svg
   width="300"
   height="300"
   viewBox="0 0 79.374999 79.375001"
   version="1.1"
   id="svg1"
   sodipodi:docname="moon.svg"
   inkscape:version="1.3 (1:1.3+202307231459+0e150ed6c4)"
   xmlns:inkscape="http://www.inkscape.org/namespaces/inkscape"
   xmlns:sodipodi="http://sodipodi.sourceforge.net/DTD/sodipodi-0.dtd"
   xmlns="http://www.w3.org/2000/svg"
   xmlns:svg="http://www.w3.org/2000/svg">
  <sodipodi:namedview
     id="namedview1"
     pagecolor="#ffffff"
     bordercolor="#666666"
     borderopacity="1.0"
     inkscape:showpageshadow="2"
     inkscape:pageopacity="0.0"
     inkscape:pagecheckerboard="0"
     inkscape:deskcolor="#d1d1d1"
     inkscape:document-units="mm"
     showgrid="false"
     inkscape:zoom="2.6810382"
     inkscape:cx="180.15409"
     inkscape:cy="112.26994"
     inkscape:window-width="1920"
     inkscape:window-height="1016"
     inkscape:window-x="0"
     inkscape:window-y="0"
     inkscape:window-maximized="1"
     inkscape:current-layer="layer2">
    <inkscape:grid
       id="grid2"
       units="px"
       originx="0"
       originy="0"
       spacingx="19.84375"
       spacingy="19.84375"
       empcolor="#0099e5"
       empopacity="0.30196078"
       color="#0099e5"
       opacity="0.14901961"
       empspacing="5"
       dotted="false"
       gridanglex="30"
       gridanglez="30"
       visible="false" />
  </sodipodi:namedview>
  <defs
     id="defs1" />
  <g
     inkscape:groupmode="layer"
     id="layer2"
     inkscape:label="Layer 2" />
  <g
     inkscape:label="Layer 1"
     inkscape:groupmode="layer"
     id="layer1">
    <path
       style="fill:#6fc7ea;fill-opacity:1;fill-rule:evenodd;stroke:none;stroke-width:0.282283;stroke-linecap:round;stroke-linejoin:round"
       id="path2"
       sodipodi:type="arc"
       sodipodi:cx="39.786968"
       sodipodi:cy="39.6875"
       sodipodi:rx="39.588032"
       sodipodi:ry="39.6875"
       sodipodi:start="2.4117626"
       sodipodi:end="2.4090914"
       sodipodi:open="true"
       sodipodi:arc-type="arc"
       d="M 10.282494,66.148862 A 39.588032,39.6875 0 0 1 13.372229,10.126571 39.588032,39.6875 0 0 1 69.256163,13.186656 39.588032,39.6875 0 0 1 66.241067,69.213035 39.588032,39.6875 0 0 1 10.353106,66.227778" />
    <path
       id="path1"
       style="fill:#f1c500;fill-rule:evenodd;stroke:#f1c500;stroke-width:0.264999;stroke-linecap:round;stroke-linejoin:round;fill-opacity:1;stroke-opacity:1"
       d="M 39.6875 0 A 39.6875 39.6875 0 0 0 0 39.6875 A 39.6875 39.6875 0 0 0 39.6875 79.375 A 39.6875 39.6875 0 0 0 49.609375 78.041231 A 39.6875 39.6875 0 0 1 19.84375 39.6875 A 39.6875 39.6875 0 0 1 49.745284 1.3043132 A 39.6875 39.6875 0 0 0 39.6875 0 z " />
  </g>
</svg>
