<?xml version="1.0" encoding="UTF-8" standalone="no"?>
<!-- Created with Inkscape (http://www.inkscape.org/) -->

<svg
   width="300"
   height="300"
   viewBox="0 0 79.374999 79.375001"
   version="1.1"
   id="svg1"
   sodipodi:docname="moon.svg"
   inkscape:version="1.3 (1:1.3+202307231459+0e150ed6c4)"
   xmlns:inkscape="http://www.inkscape.org/namespaces/inkscape"
   xmlns:sodipodi="http://sodipodi.sourceforge.net/DTD/sodipodi-0.dtd"
   xmlns="http://www.w3.org/2000/svg"
   xmlns:svg="http://www.w3.org/2000/svg">
  <sodipodi:namedview
     id="namedview1"
     pagecolor="#ffffff"
     bordercolor="#666666"
     borderopacity="1.0"
     inkscape:showpageshadow="2"
     inkscape:pageopacity="0.0"
     inkscape:pagecheckerboard="0"
     inkscape:deskcolor="#d1d1d1"
     inkscape:document-units="mm"
     showgrid="false"
     inkscape:zoom="2.6810382"
     inkscape:cx="158.14769"
     inkscape:cy="115.25386"
     inkscape:window-width="1920"
     inkscape:window-height="1016"
     inkscape:window-x="0"
     inkscape:window-y="0"
     inkscape:window-maximized="1"
     inkscape:current-layer="layer1">
    <inkscape:grid
       id="grid2"
       units="px"
       originx="0"
       originy="0"
       spacingx="19.84375"
       spacingy="19.84375"
       empcolor="#0099e5"
       empopacity="0.30196078"
       color="#0099e5"
       opacity="0.14901961"
       empspacing="5"
       dotted="false"
       gridanglex="30"
       gridanglez="30"
       visible="false" />
  </sodipodi:namedview>
  <defs
     id="defs1" />
  <g
     inkscape:groupmode="layer"
     id="layer2"
     inkscape:label="Layer 2" />
  <g
     inkscape:label="Layer 1"
     inkscape:groupmode="layer"
     id="layer1">
    <path
       style="fill:#6fc7ea;fill-opacity:1;fill-rule:evenodd;stroke:none;stroke-width:0.268123;stroke-linecap:round;stroke-linejoin:round"
       id="path2"
       sodipodi:type="arc"
       sodipodi:cx="39.778656"
       sodipodi:cy="39.6875"
       sodipodi:rx="37.602177"
       sodipodi:ry="37.696655"
       sodipodi:start="2.4117626"
       sodipodi:end="2.4090914"
       sodipodi:open="true"
       sodipodi:arc-type="arc"
       d="m 11.754215,64.82148 a 37.602177,37.696655 0 0 1 2.934744,-53.212044 37.602177,37.696655 0 0 1 53.080628,2.906582 37.602177,37.696655 0 0 1 -2.86385,53.215927 37.602177,37.696655 0 0 1 -53.084452,-2.835507" />
    <path
       id="path1"
       style="fill:#f1c500;fill-opacity:1;fill-rule:evenodd;stroke:#f1c500;stroke-width:0.251706;stroke-linecap:round;stroke-linejoin:round;stroke-opacity:1"
       d="M 39.684177,1.9908459 A 37.696654,37.696654 0 0 0 1.9875226,39.6875 37.696654,37.696654 0 0 0 39.684177,77.384154 37.696654,37.696654 0 0 0 49.10834,76.117291 37.696654,37.696654 0 0 1 20.83585,39.6875 37.696654,37.696654 0 0 1 49.237432,3.2297307 37.696654,37.696654 0 0 0 39.684177,1.9908459 Z" />
  </g>
</svg>
